<?xml version="1.0" standalone="no"?>
<!DOCTYPE svg PUBLIC "-//W3C//DTD SVG 20010904//EN"
 "http://www.w3.org/TR/2001/REC-SVG-20010904/DTD/svg10.dtd">
<svg version="1.0" xmlns="http://www.w3.org/2000/svg"
 width="513.000000pt" height="513.000000pt" viewBox="0 0 513.000000 513.000000"
 preserveAspectRatio="xMidYMid meet">
<metadata>
Created by potrace 1.14, written by Peter Selinger 2001-2017
</metadata>
<g transform="translate(0.000000,513.000000) scale(0.100000,-0.100000)"
fill="#000000" stroke="none">
<path d="M2457 4649 c-50 -8 -170 -60 -199 -86 -15 -14 -20 -12 -56 26 -46 48
-80 53 -144 20 -54 -28 -135 -111 -143 -148 -10 -48 18 -89 80 -116 29 -13 56
-28 59 -34 3 -5 0 -33 -8 -63 -10 -39 -11 -86 -6 -179 l7 -127 76 -118 c43
-67 103 -145 138 -179 34 -33 70 -78 80 -100 19 -41 25 -124 13 -184 l-6 -31
-102 0 c-112 0 -164 -17 -256 -85 -72 -53 -437 -471 -531 -607 -43 -63 -46
-76 -24 -118 l16 -30 -35 0 c-111 0 -294 57 -483 149 l-142 70 15 38 c21 49
14 134 -13 171 -25 34 -75 59 -133 66 -25 2 -67 16 -94 30 -81 42 -144 29
-186 -39 -12 -19 -23 -35 -25 -35 -3 0 -26 13 -51 30 -52 33 -101 46 -133 35
-33 -10 -27 -61 13 -121 37 -55 129 -136 343 -301 273 -213 545 -358 796 -425
106 -28 308 -31 376 -6 43 16 45 16 80 -8 20 -13 43 -24 52 -24 25 0 64 35
115 105 26 36 49 63 52 61 4 -5 -28 -609 -33 -614 -2 -2 -65 17 -140 43 -379
128 -598 83 -686 -142 -29 -76 -32 -201 -6 -254 26 -53 80 -112 133 -147 51
-35 51 -36 -43 -66 -60 -20 -114 -73 -146 -145 -30 -65 -29 -190 1 -289 29
-92 92 -163 162 -182 59 -16 176 -8 220 15 19 10 115 71 212 136 l177 119 163
-6 c189 -8 350 6 499 42 100 24 100 24 256 9 86 -8 233 -15 328 -15 l171 0 39
-41 c64 -65 228 -185 308 -223 92 -45 195 -69 269 -64 105 8 170 86 187 228
12 92 -1 215 -28 268 -18 35 -113 132 -130 132 -3 0 -12 4 -20 9 -11 7 2 24
54 72 127 119 181 235 156 336 -26 103 -145 211 -280 254 -151 48 -384 18
-573 -74 l-88 -43 0 121 c0 66 -3 205 -7 309 l-6 190 60 -62 c34 -34 67 -62
74 -62 8 0 33 11 57 25 41 23 44 23 85 9 23 -9 80 -18 127 -21 269 -17 659
152 1041 448 309 240 384 317 377 390 -3 33 -4 34 -50 33 -35 0 -60 -9 -99
-32 -28 -18 -52 -31 -54 -30 -70 104 -116 120 -211 74 -27 -13 -76 -29 -109
-35 -33 -6 -71 -19 -85 -29 -55 -40 -76 -134 -46 -207 l15 -34 -42 -24 c-80
-47 -222 -115 -294 -140 -75 -27 -214 -57 -265 -57 -26 0 -28 2 -18 15 6 8 10
21 8 29 -3 12 -432 532 -530 641 -60 66 -114 87 -253 98 -66 5 -123 14 -127
19 -13 22 -19 115 -9 157 10 45 33 84 102 171 111 140 233 308 247 340 10 21
17 74 19 135 2 55 4 111 5 125 2 14 -1 36 -4 50 -6 22 -1 30 43 60 28 19 57
43 65 54 35 51 0 130 -83 187 -82 57 -193 50 -193 -12 0 -46 -10 -49 -57 -13
-32 25 -55 34 -82 34 -21 0 -100 11 -177 25 -76 14 -148 27 -159 29 -11 2 -42
0 -68 -5z m-327 -96 c0 -42 -90 -123 -137 -123 -27 0 -27 2 -9 38 36 69 146
133 146 85z m999 -2 c21 -11 53 -37 71 -58 33 -37 33 -38 12 -41 -40 -6 -152
75 -152 109 0 15 28 10 69 -10z m-324 -420 c58 -16 61 -18 102 -86 53 -85 71
-93 75 -33 2 35 7 43 23 43 16 0 21 -8 23 -41 3 -35 -2 -46 -26 -70 -41 -41
-52 -66 -52 -116 0 -39 -9 -55 -89 -161 -50 -65 -95 -134 -102 -154 -7 -23
-10 -71 -7 -129 l5 -94 -51 -24 c-69 -34 -130 -41 -189 -22 -66 20 -130 65
-122 85 17 42 17 149 1 204 -13 46 -30 72 -91 137 l-75 80 0 64 c0 63 -1 67
-45 116 -27 31 -45 60 -45 75 0 36 23 31 51 -10 13 -19 32 -35 42 -35 14 0 17
9 17 46 l0 47 33 -9 c39 -9 95 -9 160 1 57 9 63 33 15 58 -19 9 -26 16 -17 16
10 1 42 -12 73 -28 58 -31 70 -26 46 20 -13 24 -13 24 35 -1 38 -20 165 -30
165 -13 0 4 -12 20 -27 36 -23 25 -24 29 -8 22 11 -4 47 -15 80 -24z m-414
-876 c95 -75 233 -87 342 -28 l56 31 127 -10 c144 -10 176 -22 240 -90 32 -34
355 -417 412 -490 12 -15 10 -24 -13 -66 -29 -54 -106 -145 -175 -208 -48 -44
-158 -124 -171 -124 -4 0 -22 23 -40 50 -32 49 -53 62 -62 38 -2 -7 -2 -175 1
-373 l5 -360 -82 -29 c-71 -25 -89 -27 -134 -20 -90 15 -283 8 -391 -15 -59
-12 -115 -19 -135 -15 -20 3 -107 28 -193 55 l-158 50 0 37 c0 20 7 187 17
370 12 248 14 335 5 344 -15 15 -32 0 -72 -63 -18 -27 -35 -49 -39 -49 -14 0
-124 71 -171 110 -27 23 -70 69 -96 103 -44 60 -104 166 -104 186 0 13 184
230 324 384 162 177 229 216 377 217 84 0 87 -1 130 -35z m2303 -276 c14 -17
26 -42 26 -55 0 -39 23 -38 90 5 102 66 130 67 87 2 -32 -49 -115 -121 -309
-273 -184 -143 -287 -210 -473 -303 -213 -108 -374 -155 -529 -155 -76 0 -186
22 -186 37 0 4 15 23 33 42 l32 35 -45 -36 c-25 -19 -65 -48 -88 -62 -42 -26
-45 -27 -63 -10 -10 9 -19 20 -19 24 0 4 25 24 56 44 83 56 209 180 263 262
l49 72 27 -28 28 -29 -41 -53 c-97 -124 -97 -124 -40 -70 34 33 58 50 62 43
10 -15 67 -14 168 4 146 25 315 90 470 181 100 59 104 64 78 106 -13 21 -20
50 -20 81 0 40 5 54 29 78 42 41 59 36 22 -6 -50 -58 -37 -113 31 -130 44 -11
162 30 209 72 63 57 46 97 -56 128 -29 9 0 25 47 25 28 0 42 -7 62 -31z
m-4160 5 c23 -9 20 -24 -4 -24 -36 0 -79 -29 -86 -57 -10 -40 54 -95 141 -122
84 -26 106 -26 139 0 36 28 34 69 -5 114 -34 38 -32 42 10 20 35 -18 41 -32
41 -99 0 -39 -6 -61 -21 -80 -21 -27 -21 -28 -3 -46 27 -26 194 -113 299 -155
167 -67 387 -111 433 -86 18 10 32 -1 129 -104 59 -64 109 -119 111 -124 12
-36 -207 -53 -340 -26 -159 32 -368 123 -577 252 -105 65 -327 233 -475 359
-74 63 -135 138 -123 151 10 9 66 -17 120 -55 52 -37 77 -36 77 2 0 40 46 86
85 86 18 0 40 -3 49 -6z m4074 -56 c34 -12 23 -29 -39 -61 -67 -34 -123 -44
-144 -27 -12 10 -11 16 8 41 46 63 97 76 175 47z m-3939 -49 c23 -22 40 -46
38 -52 -8 -24 -103 -11 -159 20 -28 16 -54 35 -55 40 -5 15 43 31 93 32 36 1
48 -5 83 -40z m889 -299 c69 -126 181 -241 289 -298 29 -15 53 -30 53 -35 0
-4 -15 -24 -34 -44 -33 -36 -34 -36 -58 -21 -70 46 -338 344 -338 377 0 16 39
81 48 81 4 0 22 -27 40 -60z m-298 -1780 c27 -129 52 -245 55 -257 5 -21 2
-22 -27 -17 -54 10 -112 49 -135 91 -48 85 -66 222 -41 305 11 39 90 139 95
122 1 -5 25 -115 53 -244z m2737 138 c24 -48 27 -64 27 -163 1 -130 -16 -187
-71 -235 -43 -38 -51 -34 -24 11 37 63 54 163 47 284 -3 61 -8 120 -12 133
-11 39 5 24 33 -30z"/>
<path d="M2580 3936 c0 -75 3 -88 25 -114 43 -51 28 -86 -25 -56 -16 10 -33
15 -37 10 -13 -12 13 -40 46 -50 65 -19 99 65 46 114 -23 21 -25 31 -25 102 0
63 -3 78 -15 78 -12 0 -15 -16 -15 -84z"/>
<path d="M2687 2783 c-3 -5 -8 -65 -12 -136 l-7 -127 38 -17 c53 -24 256 -26
278 -3 10 11 15 50 18 150 l3 135 -25 -2 c-14 -1 -46 -7 -73 -13 -39 -10 -62
-9 -126 4 -90 18 -88 18 -94 9z"/>
</g>
</svg>
